<svg width="216" height="88" viewBox="0 0 216 88" fill="none" xmlns="http://www.w3.org/2000/svg">
<path d="M46.4303 34.5783H49.3668V45.998H45.3699L37.5882 37.4333V45.998H34.6517V34.5783H38.6323L46.4303 43.1594V34.5783ZM62.7511 36.9112H53.6153V39.2278H62.7511V41.3486H53.6153V43.6652H62.7511V45.998H50.6788V34.5783H62.7511V36.9112ZM84.0262 34.5783H87.2074L82.7048 45.998H78.6426L75.2819 37.4006L71.905 45.998H67.8591L63.3565 34.5783H66.5214L69.8984 43.551L73.4711 34.5783H77.0765L80.6655 43.5673L84.0262 34.5783Z" fill="white"/>
<path d="M99.7748 42.409H107.279V45.998H95.5332V34.5783H99.7748V42.409ZM118.699 45.998L117.916 43.9425H113.054L112.271 45.998H107.605L112.337 34.5783H118.634L123.365 45.998H118.699ZM114.164 41.006H116.807L115.485 37.5148L114.164 41.006ZM136.75 40.2719C136.75 44.2361 134.58 46.1612 129.572 46.1612C124.547 46.1612 122.394 44.2525 122.394 40.2719V34.5783H126.635V40.2719C126.635 41.4954 127.076 42.5721 129.572 42.5721C132.068 42.5721 132.508 41.4791 132.508 40.2719V34.5783H136.75V40.2719ZM147.875 34.5783H152.116V45.998H146.57L141.643 39.2604V45.998H137.401V34.5783H142.948L147.875 41.316V34.5783ZM152.453 40.2719C152.453 36.3076 154.606 34.4152 159.631 34.4152C164.199 34.4152 166.581 36.0139 166.76 39.6193H162.421C162.257 38.5426 161.425 38.0042 159.631 38.0042C157.119 38.0042 156.694 39.0646 156.694 40.2719C156.694 41.4954 157.135 42.5721 159.631 42.5721C161.425 42.5721 162.257 42.0175 162.421 40.9244H166.76C166.581 44.5461 164.215 46.1612 159.631 46.1612C154.606 46.1612 152.453 44.2525 152.453 40.2719ZM178.187 34.5783H182.429V45.998H178.187V42.0827H171.499V45.998H167.257V34.5783H171.499V38.4937H178.187V34.5783Z" fill="#FF5CE9"/>
<path d="M104.769 8.24525C133.672 6.5201 160.006 9.04345 179.212 14.5081C188.816 17.2408 196.623 20.7042 202.076 24.7279C207.532 28.7533 210.598 33.3114 210.813 38.2306C211.027 43.1496 208.373 48.0483 203.296 52.7023C198.221 57.3546 190.756 61.7303 181.44 65.5924C162.808 73.3154 136.831 78.96 107.927 80.6852C79.0237 82.4104 52.6905 79.8879 33.4841 74.4233C23.8795 71.6906 16.0723 68.2265 10.6186 64.2026C5.16312 60.1773 2.09717 55.6199 1.88256 50.7009C1.66807 45.7818 4.32154 40.8823 9.3988 36.2282C14.4742 31.5758 21.9395 27.2011 31.2565 23.3391C49.8879 15.616 75.8649 9.97042 104.769 8.24525Z" stroke="white" stroke-width="0.582639"/>
<path d="M106.739 5.42255C135.677 5.91641 161.812 10.4522 180.671 17.377C190.102 20.84 197.698 24.8953 202.914 29.3285C208.133 33.7634 210.938 38.546 210.876 43.4711C210.815 48.3962 207.892 53.0812 202.565 57.3361C197.24 61.5893 189.547 65.3828 180.034 68.5225C161.01 74.8009 134.773 78.4429 105.835 77.9491C76.8966 77.4553 50.761 72.9196 31.9019 65.9947C22.4711 62.5317 14.8754 58.4773 9.65875 54.0442C4.44023 49.6094 1.63553 44.8266 1.69682 39.9015C1.75822 34.9764 4.68099 30.2915 10.0079 26.0366C15.3329 21.7832 23.0263 17.9889 32.5395 14.8492C51.5633 8.57073 77.8009 4.92873 106.739 5.42255Z" stroke="white" stroke-width="0.582639"/>
<path d="M107.412 8.78941C136.287 6.44415 162.635 8.01138 181.89 12.4337C191.519 14.6453 199.357 17.5673 204.848 21.059C210.345 24.5542 213.44 28.5863 213.702 33.0054C213.964 37.4246 211.375 41.919 206.344 46.2695C201.318 50.6154 193.9 54.7766 184.625 58.5236C166.077 66.0163 140.167 71.8282 111.292 74.1734C82.418 76.5186 56.07 74.9513 36.8156 70.529C27.1867 68.3175 19.348 65.3957 13.8567 61.9039C8.35968 58.4085 5.26477 54.3758 5.00253 49.9565C4.74048 45.5374 7.32949 41.0437 12.3607 36.6933C17.387 32.3473 24.8054 28.1862 34.0807 24.4392C52.6281 16.9465 78.5382 11.1347 107.412 8.78941Z" stroke="white" stroke-width="0.582639"/>
<path d="M110.495 5.30809C139.421 6.4095 165.483 11.4935 184.233 18.8134C193.609 22.4738 201.141 26.6873 206.289 31.2294C211.439 35.773 214.168 40.6137 214.032 45.5365C213.895 50.4595 210.902 55.083 205.51 59.2254C200.121 63.3662 192.37 66.9977 182.81 69.9372C163.693 75.8152 137.404 78.9059 108.478 77.8045C79.552 76.703 53.4907 71.619 34.7409 64.2992C25.3646 60.6388 17.8321 56.4253 12.6843 51.8832C7.53453 47.3395 4.80396 42.4981 4.9409 37.5751C5.07802 32.6522 8.07184 28.0295 13.4631 23.8872C18.8524 19.7464 26.6032 16.1149 36.163 13.1754C55.28 7.29745 81.5687 4.20673 110.495 5.30809Z" stroke="white" stroke-width="0.582639"/>
</svg>
